<svg xmlns="http://www.w3.org/2000/svg" width="48.821" height="68.967" viewBox="0 0 48.821 68.967">
  <g id="Group_24" data-name="Group 24" transform="translate(0)">
    <path id="Path_19" data-name="Path 19" d="M184.015,33.6a8.459,8.459,0,0,0-8.44,8.409V94.16a8.455,8.455,0,0,0,8.44,8.409h31.952a8.449,8.449,0,0,0,8.43-8.409V42.011a8.452,8.452,0,0,0-8.43-8.409Zm0,3.135h31.952a5.287,5.287,0,0,1,5.3,5.274V94.16a5.278,5.278,0,0,1-5.3,5.274H184.015a5.288,5.288,0,0,1-5.3-5.274V42.011a5.3,5.3,0,0,1,5.3-5.274Z" transform="translate(-175.575 -33.602)" fill="#b7d64f" fill-rule="evenodd"/>
    <path id="Path_20" data-name="Path 20" d="M261.1,274.27A14.43,14.43,0,1,0,275.571,288.7,14.476,14.476,0,0,0,261.1,274.27Zm0,3.135A11.3,11.3,0,1,1,249.765,288.7,11.3,11.3,0,0,1,261.1,277.4Z" transform="translate(-236.686 -240.589)" fill="#b7d64f" fill-rule="evenodd"/>
    <path id="Path_21" data-name="Path 21" d="M309.867,330.8a6.519,6.519,0,1,0,6.539,6.515A6.545,6.545,0,0,0,309.867,330.8Zm0,3.135a3.385,3.385,0,1,1-3.4,3.38A3.366,3.366,0,0,1,309.867,333.935Z" transform="translate(-285.456 -289.208)" fill="#b7d64f" fill-rule="evenodd"/>
    <path id="Path_22" data-name="Path 22" d="M309.867,79.508a6.524,6.524,0,1,0,6.539,6.524A6.551,6.551,0,0,0,309.867,79.508Zm0,3.135a3.389,3.389,0,1,1-3.4,3.389A3.375,3.375,0,0,1,309.867,82.643Z" transform="translate(-285.456 -73.084)" fill="#b7d64f" fill-rule="evenodd"/>
  </g>
</svg>
