<svg id="Icon_settings_outline" xmlns="http://www.w3.org/2000/svg" width="24.468" height="22.899" viewBox="0 0 24.468 22.899">
  <path id="Path" d="M4.894,2.29A2.372,2.372,0,0,1,2.447,4.58,2.372,2.372,0,0,1,0,2.29,2.372,2.372,0,0,1,2.447,0,2.372,2.372,0,0,1,4.894,2.29Z" transform="translate(9.787 9.159)" fill="#b7d64f"/>
  <path id="Shape" d="M9.732,18.319C4.366,18.319,0,14.21,0,9.159S4.366,0,9.732,0s9.732,4.109,9.732,9.159S15.1,18.319,9.732,18.319Zm0-16.029a7.1,7.1,0,0,0-7.3,6.87,7.1,7.1,0,0,0,7.3,6.87,7.1,7.1,0,0,0,7.3-6.87A7.1,7.1,0,0,0,9.732,2.29Z" transform="translate(2.29 2.29)" fill="#b7d64f"/>
  <path id="Path-2" data-name="Path" d="M.228,2.868a1.091,1.091,0,0,1,.13-1.475L1.488.335A1.287,1.287,0,0,1,3.064.213l2.184,1.46L1.788,4.912Z" transform="translate(2.66 2.49)" fill="#b7d64f"/>
  <path id="Path-3" data-name="Path" d="M5.021,2.044a1.091,1.091,0,0,1-.13,1.475L3.761,4.576A1.287,1.287,0,0,1,2.184,4.7L0,3.238,3.46,0Z" transform="translate(16.559 15.497)" fill="#b7d64f"/>
  <path id="Path-4" data-name="Path" d="M2.184.213A1.287,1.287,0,0,1,3.761.335L4.89,1.392a1.091,1.091,0,0,1,.13,1.475L3.46,4.912,0,1.674Z" transform="translate(16.559 2.489)" fill="#b7d64f"/>
  <path id="Path-5" data-name="Path" d="M3.064,4.7a1.286,1.286,0,0,1-1.576-.122L.358,3.519a1.091,1.091,0,0,1-.13-1.475L1.788,0l3.46,3.238Z" transform="translate(2.66 15.497)" fill="#b7d64f"/>
  <path id="Path-6" data-name="Path" d="M2.648.413A1.17,1.17,0,0,1,3.67,1.542v1.5A1.17,1.17,0,0,1,2.648,4.167L0,4.58V0Z" transform="translate(20.798 9.159)" fill="#b7d64f"/>
  <path id="Path-7" data-name="Path" d="M1.022,4.167A1.17,1.17,0,0,1,0,3.037v-1.5A1.17,1.17,0,0,1,1.022.413L3.67,0V4.58Z" transform="translate(0 9.159)" fill="#b7d64f"/>
  <path id="Path-8" data-name="Path" d="M.441.957A1.2,1.2,0,0,1,1.648,0h1.6A1.2,1.2,0,0,1,4.452.957l.441,2.478H0Z" transform="translate(9.787)" fill="#b7d64f"/>
  <path id="Path-9" data-name="Path" d="M4.452,2.478a1.2,1.2,0,0,1-1.207.957h-1.6A1.2,1.2,0,0,1,.441,2.478L0,0H4.894Z" transform="translate(9.787 19.464)" fill="#b7d64f"/>
</svg>
