<svg id="Icon_home_outline" xmlns="http://www.w3.org/2000/svg" width="25.756" height="22.899" viewBox="0 0 25.756 22.899">
  <path id="Path" d="M12.087.254a1.358,1.358,0,0,1,1.581,0L25.259,8.69a1.154,1.154,0,0,1,.226,1.691,1.348,1.348,0,0,1-1.807.212l-10.8-7.861-10.8,7.861a1.348,1.348,0,0,1-1.807-.212A1.154,1.154,0,0,1,.5,8.69Z" transform="translate(0 0)" fill="#b7d64f"/>
  <path id="Path-2" data-name="Path" d="M1.288,0A1.249,1.249,0,0,1,2.576,1.205V13.86H7.727V10.244A1.249,1.249,0,0,1,9.014,9.039H11.59a1.249,1.249,0,0,1,1.288,1.205V13.86h5.151V1.808a1.291,1.291,0,0,1,2.576,0V15.065a1.249,1.249,0,0,1-1.288,1.205H1.288A1.249,1.249,0,0,1,0,15.065V1.205A1.249,1.249,0,0,1,1.288,0Z" transform="translate(2.576 6.629)" fill="#b7d64f"/>
</svg>
