<svg xmlns="http://www.w3.org/2000/svg" width="26" height="18.229" viewBox="0 0 26 18.229">
  <path id="Path_58843" data-name="Path 58843" d="M139.907,123.5a.591.591,0,0,0,.25.063.618.618,0,0,0,.438-.188l2.816-2.816a.6.6,0,0,0,0-.876l-2.816-2.816a.627.627,0,0,0-1.064.438v1.721h-.595a7.412,7.412,0,0,0-5.319,2.284l-2.785,2.91-2.785-2.91a7.411,7.411,0,0,0-5.319-2.284h-4.036a1.1,1.1,0,1,0,0,2.19h4.036a5.211,5.211,0,0,1,3.723,1.6l2.847,2.972-.031.031-2.816,2.972a5.139,5.139,0,0,1-3.723,1.6h-4.036a1.1,1.1,0,0,0,0,2.19h4.036a7.411,7.411,0,0,0,5.319-2.284l2.785-2.91,2.785,2.91a7.411,7.411,0,0,0,5.319,2.284h.595v1.721a.618.618,0,0,0,.375.563.591.591,0,0,0,.25.063.618.618,0,0,0,.438-.188l2.816-2.816a.6.6,0,0,0,0-.876l-2.816-2.816a.627.627,0,0,0-1.064.438v1.721h-.595a4.992,4.992,0,0,1-1.658-.282,5.839,5.839,0,0,1-1.5-.813,4.575,4.575,0,0,1-.595-.5l-2.847-2.973,2.847-2.972a5.139,5.139,0,0,1,3.723-1.6h.595v1.721a.593.593,0,0,0,.407.532Z" transform="translate(-117.599 -116.688)" fill="#b7d64f"/>
</svg>
