<?xml version="1.0" encoding="UTF-8" standalone="no" ?>
<!DOCTYPE svg PUBLIC "-//W3C//DTD SVG 1.1//EN" "http://www.w3.org/Graphics/SVG/1.1/DTD/svg11.dtd">
<svg xmlns="http://www.w3.org/2000/svg" xmlns:xlink="http://www.w3.org/1999/xlink" version="1.1" width="56" height="56" viewBox="0 0 500 500" xml:space="preserve">
<desc>Created with Fabric.js 4.6.0</desc>
<defs>
</defs>
<g transform="matrix(1 0 0 1 55.9 163.04)" id="wg9LGxIugDpryM13W2Wu-"  >
<path style="stroke: rgb(0,0,0); stroke-width: 1; stroke-dasharray: none; stroke-linecap: butt; stroke-dashoffset: 0; stroke-linejoin: miter; stroke-miterlimit: 4; fill: rgb(255,255,255); fill-opacity: 0; fill-rule: nonzero; opacity: 1;" vector-effect="non-scaling-stroke"  transform=" translate(0, 0)" d="M 0 0" stroke-linecap="round" />
</g>
<g transform="matrix(1 0 0 1 142.08 391.3)" id="X7hKEpj-kCy78_Vg9W8D6"  >
<path style="stroke: rgb(0,0,0); stroke-width: 1; stroke-dasharray: none; stroke-linecap: butt; stroke-dashoffset: 0; stroke-linejoin: miter; stroke-miterlimit: 4; fill: rgb(255,255,255); fill-opacity: 0; fill-rule: nonzero; opacity: 1;" vector-effect="non-scaling-stroke"  transform=" translate(0, 0)" d="M 0 0" stroke-linecap="round" />
</g>
<g transform="matrix(1.74 0 0 1.45 167.4 340.18)" id="4vU9LI5Ym0331zBDQerMl"  >
<path style="stroke: rgb(63,4,106); stroke-width: 20; stroke-dasharray: none; stroke-linecap: butt; stroke-dashoffset: 0; stroke-linejoin: miter; stroke-miterlimit: 4; fill: none; fill-rule: nonzero; opacity: 1;" vector-effect="non-scaling-stroke"  transform=" translate(0, 0)" d="M -38.81988 0.32622 L -38.81988 -29.16353 L -38.81988 -29.16353 C -38.81988 -34.49658 -35.19956 -38.81987 -30.73368 -38.81987 L 32.31171 -38.81987 L 32.31171 -38.81987 C 35.90607 -38.81987 38.819869999999995 -35.34028 38.819869999999995 -31.047990000000002 L 38.819869999999995 31.048 L 38.819869999999995 31.048 C 38.819869999999995 35.340289999999996 35.90606999999999 38.81988 32.31170999999999 38.81988 L -32.31172000000001 38.81988 L -32.31172000000001 38.81988 C -35.90608000000001 38.81988 -38.81988000000001 35.340289999999996 -38.81988000000001 31.048 z" stroke-linecap="round" />
</g>
<g transform="matrix(1.74 0 0 1.45 332.6 340.18)" id="CDs3GkSMcQlSRThkn4sPO"  >
<path style="stroke: rgb(63,4,106); stroke-width: 20; stroke-dasharray: none; stroke-linecap: butt; stroke-dashoffset: 0; stroke-linejoin: miter; stroke-miterlimit: 4; fill: none; fill-rule: nonzero; opacity: 1;" vector-effect="non-scaling-stroke"  transform=" translate(0, 0)" d="M -38.81988 0.32622 L -38.81988 -29.16353 L -38.81988 -29.16353 C -38.81988 -34.49658 -35.19956 -38.81987 -30.73368 -38.81987 L 32.31171 -38.81987 L 32.31171 -38.81987 C 35.90607 -38.81987 38.819869999999995 -35.34028 38.819869999999995 -31.047990000000002 L 38.819869999999995 31.048 L 38.819869999999995 31.048 C 38.819869999999995 35.340289999999996 35.90606999999999 38.81988 32.31170999999999 38.81988 L -32.31172000000001 38.81988 L -32.31172000000001 38.81988 C -35.90608000000001 38.81988 -38.81988000000001 35.340289999999996 -38.81988000000001 31.048 z" stroke-linecap="round" />
</g>
<g transform="matrix(1.74 0 0 1.54 167.4 176.91)" id="I-0aszBDoWpgHawSFgdHl"  >
<path style="stroke: rgb(63,4,106); stroke-width: 20; stroke-dasharray: none; stroke-linecap: butt; stroke-dashoffset: 0; stroke-linejoin: miter; stroke-miterlimit: 4; fill: none; fill-rule: nonzero; opacity: 1;" vector-effect="non-scaling-stroke"  transform=" translate(0, 0)" d="M -38.81988 9.30232 L -38.81988 2.2282200000000003 L -38.81988 2.2282200000000003 C -38.81988 -1.8523100000000001 -36.83106 -5.60213 -33.644169999999995 -7.530329999999999 L 31.85970000000001 -47.16292 L 31.85970000000001 -47.16292 C 33.32458000000001 -48.04923 35.09435000000001 -48.00215 36.52059000000001 -47.03891 C 37.94683000000001 -46.07567 38.81988000000001 -44.33788 38.81988000000001 -42.462230000000005 L 38.81988000000001 40.45191 L 38.81988000000001 40.45191 C 38.81988000000001 42.39968 38.134200000000014 44.267669999999995 36.913680000000014 45.644949999999994 C 35.69316000000001 47.02222999999999 34.037790000000015 47.79597999999999 32.311720000000015 47.79597999999999 L -32.311709999999984 47.79597999999999 L -32.311709999999984 47.79597999999999 C -35.906069999999985 47.79597999999999 -38.81986999999998 44.507929999999995 -38.81986999999998 40.45190999999999 z" stroke-linecap="round" />
</g>
<g transform="matrix(-1.74 0 0 1.54 332.6 176.9)" id="OkjwBUcAQHbaKbze5pvit"  >
<path style="stroke: rgb(63,4,106); stroke-width: 20; stroke-dasharray: none; stroke-linecap: butt; stroke-dashoffset: 0; stroke-linejoin: miter; stroke-miterlimit: 4; fill: none; fill-rule: nonzero; opacity: 1;" vector-effect="non-scaling-stroke"  transform=" translate(0, 0)" d="M -38.81988 9.3035 L -38.81988 2.2250499999999995 L -38.81988 2.2250499999999995 C -38.81988 -1.8528000000000002 -36.83237 -5.600160000000001 -33.647569999999995 -7.527100000000001 L 31.86426000000001 -47.16451000000001 L 31.86426000000001 -47.16451000000001 C 33.32818000000001 -48.05024000000001 35.096790000000006 -48.003190000000004 36.522090000000006 -47.040580000000006 C 37.947390000000006 -46.077980000000004 38.81987000000001 -44.34132 38.81987000000001 -42.4669 L 38.81987000000001 40.45790999999999 L 38.81987000000001 40.45790999999999 C 38.81987000000001 42.40439999999999 38.13464000000001 44.27116999999999 36.914930000000005 45.64753999999999 C 35.69521 47.02391999999999 34.04093 47.79715999999999 32.315990000000006 47.79715999999999 L -32.31598999999999 47.79715999999999 L -32.31598999999999 47.79715999999999 C -35.90798999999999 47.79715999999999 -38.81987999999999 44.51126999999999 -38.81987999999999 40.45790999999999 z" stroke-linecap="round" />
</g>
</svg>