<svg id="noun-repeat-4865581" xmlns="http://www.w3.org/2000/svg" width="26" height="21.124" viewBox="0 0 26 21.124">
  <path id="noun-repeat-4865581-2" data-name="noun-repeat-4865581" d="M99.167,91.668V81.994a3.329,3.329,0,0,1,3.325-3.326h9.033a7.7,7.7,0,0,1-.21-1.734.907.907,0,0,1,1.492-.419l2.419,2.419a.907.907,0,0,1,0,1.283l-2.419,2.419a.907.907,0,0,1-1.5-.416,8.246,8.246,0,0,1,.216-1.737h-9.034a1.513,1.513,0,0,0-1.511,1.512v9.675h0a1.513,1.513,0,0,0,1.511,1.512h3.93a.907.907,0,0,1,0,1.814h-3.93a3.329,3.329,0,0,1-3.325-3.326Zm22.675-13h-2.721a.907.907,0,1,0,0,1.814h2.721a1.513,1.513,0,0,1,1.511,1.512v9.675h0a1.513,1.513,0,0,1-1.511,1.512H113.6l.419-.871h0a.907.907,0,0,0-1.282-1.282l-2.419,2.419h0a.907.907,0,0,0,0,1.283l2.419,2.419h0a.907.907,0,0,0,1.282-1.283l-.419-.871h8.243a3.329,3.329,0,0,0,3.325-3.326V81.994a3.329,3.329,0,0,0-3.325-3.326Z" transform="translate(-99.167 -76.272)" fill="#b7d64f"/>
</svg>
