<svg xmlns="http://www.w3.org/2000/svg" width="22" height="22.763" viewBox="0 0 22 22.763">
  <g id="Group_26" data-name="Group 26" transform="translate(-3432.364 -330)">
    <path id="Path_23" data-name="Path 23" d="M115.963,106.555a1.254,1.254,0,0,0-1.723,0,1.138,1.138,0,0,0,0,1.656,8,8,0,0,1,0,11.637,8.822,8.822,0,0,1-12.11,0,8,8,0,0,1,0-11.637,1.138,1.138,0,0,0,0-1.655,1.254,1.254,0,0,0-1.723,0,10.28,10.28,0,0,0,0,14.947,11.332,11.332,0,0,0,15.556,0,10.279,10.279,0,0,0,0-14.948Z" transform="translate(3335.179 228.169)" fill="#b7d64f"/>
    <path id="Path_24" data-name="Path 24" d="M323.331,27.64a1.33,1.33,0,0,0,1.33-1.33V15.33a1.33,1.33,0,1,0-2.661,0V26.31A1.331,1.331,0,0,0,323.331,27.64Z" transform="translate(3120.033 316)" fill="#b7d64f"/>
  </g>
</svg>
